<svg width="150" height="40" viewBox="0 0 150 40" fill="none" xmlns="http://www.w3.org/2000/svg">
<rect width="150" height="40" fill="#444444"/>
<circle cx="20" cy="20" r="20" fill="white" fill-opacity="0.3"/>
<g clip-path="url(#clip0_46548_804)">
<path d="M25.4431 14.0736L13.6231 18.6316C12.8164 18.9556 12.8211 19.4056 13.4751 19.6062L16.5097 20.5529L23.5311 16.1229C23.8631 15.9209 24.1664 16.0296 23.9171 16.2509L18.2284 21.3849H18.2271L18.2284 21.3856L18.0191 24.5136C18.3257 24.5136 18.4611 24.3729 18.6331 24.2069L20.1071 22.7736L23.1731 25.0382C23.7384 25.3496 24.1444 25.1896 24.2851 24.5149L26.2977 15.0296C26.5037 14.2036 25.9824 13.8296 25.4431 14.0736Z" fill="#444444"/>
</g>
<circle cx="75" cy="20" r="20" fill="white" fill-opacity="0.3"/>
<g clip-path="url(#clip1_46548_804)">
<path d="M82.6671 16.6746C82.5765 16.3515 82.4 16.0589 82.1564 15.828C81.9059 15.59 81.5989 15.4197 81.2644 15.3333C80.0124 15.0033 74.9964 15.0033 74.9964 15.0033C72.9053 14.9795 70.8147 15.0842 68.7364 15.3166C68.4019 15.4094 68.0955 15.5835 67.8444 15.8233C67.5977 16.0606 67.4191 16.3533 67.3257 16.674C67.1015 17.8818 66.9926 19.1082 67.0004 20.3366C66.9924 21.564 67.1011 22.79 67.3257 23.9993C67.4171 24.3186 67.5951 24.61 67.8424 24.8453C68.0897 25.0806 68.3977 25.2506 68.7364 25.3406C70.0051 25.67 74.9964 25.67 74.9964 25.67C77.0902 25.6938 79.1835 25.5892 81.2644 25.3566C81.5989 25.2702 81.9059 25.1 82.1564 24.862C82.3999 24.6311 82.5762 24.3385 82.6664 24.0153C82.8965 22.8079 83.0083 21.581 83.0004 20.352C83.0177 19.1177 82.906 17.885 82.6671 16.674V16.6746ZM73.4017 22.6193V18.0546L77.5751 20.3373L73.4017 22.6193Z" fill="#444444"/>
</g>
<circle cx="130" cy="20" r="20" fill="white" fill-opacity="0.3"/>
<path d="M132.7 13.1551C134.2 12.6551 135.3 13.4551 135.9 14.2551C136.4 14.0551 137 13.8551 137.6 13.6551C137.6 14.4551 137.1 15.0551 136.8 15.2551C137.5 15.4551 138 14.8551 138 14.8551C137.9 15.7551 137.1 16.5551 136.6 16.7551C136.4 23.0551 133.8 27.1551 127.7 27.0551C127.2 27.0551 127.8 27.0551 127.3 27.0551C127 27.0551 123.6 26.6551 123 25.2551C125 25.4551 126.4 24.8551 127.1 24.1551C126.3 23.8551 124.7 23.7551 124.5 21.3551C124.8 21.5551 125 21.6551 125.6 21.5551C124.5 20.7551 123.3 20.0551 123.4 18.0551C123.7 18.3551 124.3 18.5551 124.6 18.4551C124 18.2551 122.8 15.3551 123.8 13.8551C125.4 15.5551 127.1 17.2551 130.1 17.3551C130.3 15.2551 131.1 13.8551 132.7 13.1551Z" fill="#444444"/>
<defs>
<clipPath id="clip0_46548_804">
<rect width="14" height="12" fill="white" transform="translate(13 14)"/>
</clipPath>
<clipPath id="clip1_46548_804">
<rect width="16" height="11" fill="white" transform="translate(67 15)"/>
</clipPath>
</defs>
</svg>
