<svg width="192" height="130" viewBox="0 0 192 130" fill="none" xmlns="http://www.w3.org/2000/svg">
<path d="M52.2036 129.8C43.5636 129.8 36.0636 128.6 29.7036 126.2C23.3436 123.68 18.0636 120.26 13.8636 115.94C9.78359 111.62 6.66359 106.58 4.50359 100.82C2.34359 95.06 1.08359 88.88 0.723594 82.28C0.603594 79.04 0.483594 75.38 0.363594 71.3C0.363594 67.1 0.363594 62.9 0.363594 58.7C0.483594 54.38 0.603594 50.54 0.723594 47.18C1.08359 40.58 2.34359 34.46 4.50359 28.82C6.78359 23.06 10.0236 18.08 14.2236 13.88C18.5436 9.56 23.8236 6.19999 30.0636 3.79999C36.4236 1.39999 43.8036 0.199993 52.2036 0.199993C60.7236 0.199993 68.1036 1.39999 74.3436 3.79999C80.5836 6.19999 85.8036 9.56 90.0036 13.88C94.3236 18.08 97.6236 23.06 99.9036 28.82C102.184 34.46 103.444 40.58 103.684 47.18C103.924 50.54 104.044 54.38 104.044 58.7C104.164 62.9 104.164 67.1 104.044 71.3C104.044 75.38 103.924 79.04 103.684 82.28C103.444 88.88 102.184 95.06 99.9036 100.82C97.7436 106.58 94.5636 111.62 90.3636 115.94C86.2836 120.26 81.0636 123.68 74.7036 126.2C68.4636 128.6 60.9636 129.8 52.2036 129.8ZM52.2036 103.7C58.4436 103.7 62.9436 101.72 65.7036 97.76C68.5836 93.68 70.0836 88.22 70.2036 81.38C70.4436 77.9 70.5636 74.24 70.5636 70.4C70.6836 66.56 70.6836 62.72 70.5636 58.88C70.5636 55.04 70.4436 51.5 70.2036 48.26C70.0836 41.66 68.5836 36.32 65.7036 32.24C62.9436 28.16 58.4436 26.06 52.2036 25.94C45.9636 26.06 41.4636 28.16 38.7036 32.24C35.9436 36.32 34.4436 41.66 34.2036 48.26C34.0836 51.5 33.9636 55.04 33.8436 58.88C33.8436 62.72 33.8436 66.56 33.8436 70.4C33.9636 74.24 34.0836 77.9 34.2036 81.38C34.4436 88.22 36.0036 93.68 38.8836 97.76C41.7636 101.72 46.2036 103.7 52.2036 103.7ZM163.387 128C162.187 128 161.107 127.58 160.147 126.74C159.307 125.9 158.887 124.82 158.887 123.5V37.82L134.227 56.72C133.147 57.56 132.007 57.86 130.807 57.62C129.727 57.38 128.767 56.72 127.927 55.64L117.307 41.78C116.587 40.7 116.287 39.56 116.407 38.36C116.647 37.04 117.367 36.02 118.567 35.3L159.967 3.26C160.687 2.78 161.347 2.48 161.947 2.36C162.667 2.11999 163.447 1.99999 164.287 1.99999H186.787C187.987 1.99999 189.007 2.41999 189.847 3.26C190.807 4.09999 191.287 5.17999 191.287 6.5V123.5C191.287 124.82 190.807 125.9 189.847 126.74C189.007 127.58 187.987 128 186.787 128H163.387Z" fill="white"/>
</svg>
