<svg width="153" height="44" viewBox="0 0 153 44" fill="none" xmlns="http://www.w3.org/2000/svg">
<g filter="url(#filter0_d_46553_930)">
<path d="M31.2188 0V35.3H23.6135V32.9C21.9124 34.8 19.5107 36 16.1084 36C9.5038 36 4 30.2 4 22.7C4 15.2 9.5038 9.4 16.1084 9.4C19.5107 9.4 22.0124 10.6 23.6135 12.5V0H31.2188ZM23.6135 22.7C23.6135 18.9 21.1118 16.5 17.6094 16.5C14.107 16.5 11.6052 18.9 11.6052 22.7C11.6052 26.5 14.107 28.9 17.6094 28.9C21.1118 28.8 23.6135 26.5 23.6135 22.7Z" fill="black"/>
<path d="M47.7298 29.1999C49.8313 29.1999 51.5325 28.3999 52.5332 27.2999L58.6374 30.7999C56.1356 34.1999 52.4331 35.9999 47.6298 35.9999C39.0238 35.9999 33.6201 30.1999 33.6201 22.6999C33.6201 15.1999 39.0238 9.3999 47.0294 9.3999C54.4345 9.3999 59.8382 15.0999 59.8382 22.6999C59.8382 23.7999 59.7381 24.7999 59.538 25.6999H41.6256C42.6263 28.2999 44.9279 29.1999 47.7298 29.1999ZM52.333 20.0999C51.5325 17.1999 49.2309 16.0999 46.9293 16.0999C44.0273 16.0999 42.126 17.4999 41.4255 20.0999H52.333Z" fill="black"/>
<path d="M86.1563 10.1001L76.8499 35.3001H68.2439L58.9375 10.1001H67.3433L72.647 26.1001L77.9506 10.1001C77.9506 10.1001 86.1563 10.1001 86.1563 10.1001Z" fill="black"/>
<path d="M87.458 10.1001H95.0633V35.3001H87.458V10.1001Z" fill="black"/>
<path d="M97.665 22.6999C97.665 15.1999 103.369 9.3999 111.074 9.3999C115.978 9.3999 120.281 11.9999 122.482 15.8999L115.878 19.6999C114.977 17.8999 113.176 16.8999 110.974 16.8999C107.672 16.8999 105.27 19.2999 105.27 22.6999C105.27 26.1999 107.672 28.4999 110.974 28.4999C113.176 28.4999 115.077 27.3999 115.878 25.6999L122.482 29.4999C120.381 33.3999 116.078 35.9999 111.074 35.9999C103.369 35.9999 97.665 30.1999 97.665 22.6999Z" fill="black"/>
<path d="M136.892 29.1999C138.993 29.1999 140.695 28.3999 141.695 27.2999L147.799 30.7999C145.298 34.1999 141.595 35.9999 136.792 35.9999C128.186 35.9999 122.782 30.1999 122.782 22.6999C122.782 15.1999 128.286 9.3999 136.191 9.3999C143.597 9.3999 149 15.0999 149 22.6999C149 23.7999 148.9 24.7999 148.7 25.6999H130.788C131.788 28.2999 134.09 29.1999 136.892 29.1999ZM141.595 20.0999C140.795 17.1999 138.493 16.0999 136.191 16.0999C133.289 16.0999 131.388 17.4999 130.688 20.0999H141.595Z" fill="black"/>
<path d="M87.458 0V10.1L95.0633 0H87.458Z" fill="#510094"/>
</g>
<defs>
<filter id="filter0_d_46553_930" x="0" y="0" width="153" height="44" filterUnits="userSpaceOnUse" color-interpolation-filters="sRGB">
<feFlood flood-opacity="0" result="BackgroundImageFix"/>
<feColorMatrix in="SourceAlpha" type="matrix" values="0 0 0 0 0 0 0 0 0 0 0 0 0 0 0 0 0 0 127 0" result="hardAlpha"/>
<feOffset dy="4"/>
<feGaussianBlur stdDeviation="2"/>
<feComposite in2="hardAlpha" operator="out"/>
<feColorMatrix type="matrix" values="0 0 0 0 0 0 0 0 0 0 0 0 0 0 0 0 0 0 0.25 0"/>
<feBlend mode="normal" in2="BackgroundImageFix" result="effect1_dropShadow_46553_930"/>
<feBlend mode="normal" in="SourceGraphic" in2="effect1_dropShadow_46553_930" result="shape"/>
</filter>
</defs>
</svg>
